<?xml version="1.0" encoding="UTF-8"?>
<svg xmlns="http://www.w3.org/2000/svg" xmlns:xlink="http://www.w3.org/1999/xlink" width="512" height="512" viewBox="0 0 48 60" version="1.1"><!-- Generator: Sketch 51.3 (57544) - http://www.bohemiancoding.com/sketch --><title>011 - Shift Stick</title><desc>Created with Sketch.</desc><defs/><g id="Page-1" stroke="none" stroke-width="1" fill="none" fill-rule="evenodd"><g id="011---Shift-Stick" fill-rule="nonzero"><polygon id="Shape" fill="#7FACFA" points="27.38 41.94 21.9 44.37 21.45 43.36 10.73 19.17 13.94 17.75 16.21 16.74"/><polygon id="Shape" fill="#A4C2F7" points="24.92 42.19 21.72 43.61 11 19.42 14.21 18"/><path d="M46.64,56.95 C46.58,57.8 45.88,59 44.89,59 L19.73,59 C19.0821911,58.998735 18.4862765,58.6454323 18.1743241,58.0776791 C17.8623718,57.5099258 17.8836989,56.8174793 18.23,56.27 C18.5225662,55.8197083 18.9976019,55.5200704 19.53,55.45 L19.62,55.44 C18.68,55.41 18.13,54.2 18.1,53.38 C18.0670646,52.8156213 18.2533571,52.2603266 18.62,51.83 L18.63,51.82 C18.9685127,51.4509533 19.4176994,51.2017951 19.91,51.11 L21.43,50.79 C20.5874525,50.9889887 19.7055455,50.6860172 19.1631693,50.01125 C18.6207931,49.3364828 18.514517,48.4100611 18.89,47.63 C19.0599714,47.2614739 19.3392926,46.9542206 19.69,46.75 C19.409895,46.2781079 19.1786965,45.7788531 19,45.26 C18.8286223,44.7792331 18.8215882,44.2551936 18.98,43.77 C19.3,42.88 20.15,42.56 20.94,42.21 L25.45,40.21 L26.43,39.78 L27.34,39.38 C27.8253048,39.1648301 28.3762447,39.151431 28.8714357,39.3427548 C29.3666266,39.5340785 29.7654369,39.9144266 29.98,40.4 L30.79,42.22 C30.945833,42.5827251 30.8797278,43.0026872 30.62,43.3 L30.47,43.35 C31.85,42.93 33.31,42.62 34.48,43.75 C35.0588784,44.3077573 35.3908735,45.0737107 35.4021415,45.8774933 C35.4134095,46.681276 35.1030159,47.4562348 34.54,48.03 C34.89,47.96 35.24,47.86 35.59,47.77 C37.26,47.36 38.77,47.44 39.86,48.93 C40.8110395,50.1407383 40.8676929,51.8282012 40,53.1 C40.22,53.08 40.43,53.05 40.64,53.03 C41.6519538,52.7942978 42.6943026,52.716712 43.73,52.8 C44.609389,53.0186302 45.3779727,53.5523689 45.89,54.3 C46.4340694,55.0723473 46.6986168,56.0070812 46.64,56.95 Z" id="Shape" fill="#CAD9FC"/><path d="M44.02,57.95 C43.9883153,58.3213673 43.8720093,58.6805473 43.68,59 L19.73,59 C19.0821911,58.998735 18.4862765,58.6454323 18.1743241,58.0776791 C17.8623718,57.5099258 17.8836989,56.8174793 18.23,56.27 C18.5225662,55.8197083 18.9976019,55.5200704 19.53,55.45 L19.62,55.44 C18.68,55.41 18.13,54.2 18.1,53.38 C18.0670646,52.8156213 18.2533571,52.2603266 18.62,51.83 L18.81,51.79 L18.63,51.82 C18.9685127,51.4509533 19.4176994,51.2017951 19.91,51.11 L21.43,50.79 C20.5874525,50.9889887 19.7055455,50.6860172 19.1631693,50.01125 C18.6207931,49.3364828 18.514517,48.4100611 18.89,47.63 C19.0599714,47.2614739 19.3392926,46.9542206 19.69,46.75 C19.409895,46.2781079 19.1786965,45.7788531 19,45.26 C18.8286223,44.7792331 18.8215882,44.2551936 18.98,43.77 C19.3,42.88 20.15,42.56 20.94,42.21 L25.45,40.21 C26.2696412,40.1805243 27.025209,40.6512707 27.36,41.4 L28.17,43.22 C28.325833,43.5827251 28.2597278,44.0026872 28,44.3 L27.85,44.35 C29.23,43.93 30.69,43.62 31.86,44.75 C32.4388784,45.3077573 32.7708735,46.0737107 32.7821415,46.8774933 C32.7934095,47.681276 32.4830159,48.4562348 31.92,49.03 C32.27,48.96 32.62,48.86 32.97,48.77 C34.64,48.36 36.15,48.44 37.24,49.93 C38.1910395,51.1407383 38.2476929,52.8282012 37.38,54.1 C37.6,54.08 37.81,54.05 38.02,54.03 C39.0319538,53.7942978 40.0743026,53.716712 41.11,53.8 C41.989389,54.0186302 42.7579727,54.5523689 43.27,55.3 C43.8140694,56.0723473 44.0786168,57.0070812 44.02,57.95 Z" id="Shape" fill="#E8EDFC"/><path d="M34.54,48.03 L21.43,50.79 C20.8925332,50.8964761 20.3348049,50.8152878 19.85,50.56 C19.3329575,50.3000071 18.9409196,49.8445888 18.7607268,49.2946254 C18.580534,48.7446619 18.6270604,48.1455502 18.89,47.63 C19.3203801,46.8875441 20.0696413,46.385576 20.92,46.27 L27.49,44.26 C28.39,43.98 29.28,43.71 30.18,43.44 C30.28,43.41 30.37,43.38 30.47,43.35 L31.01,43.2 C32.1779334,42.7151238 33.5192519,42.9277247 34.48,43.75 C35.0588784,44.3077573 35.3908735,45.0737107 35.4021415,45.8774933 C35.4134095,46.681276 35.1030159,47.4562348 34.54,48.03 Z" id="Shape" fill="#CAD9FC"/><path d="M46.64,56.95 C46.58,57.8 45.88,59 44.89,59 L19.73,59 C19.0821911,58.998735 18.4862765,58.6454323 18.1743241,58.0776791 C17.8623718,57.5099258 17.8836989,56.8174793 18.23,56.27 C18.5225662,55.8197083 18.9976019,55.5200704 19.53,55.45 L19.62,55.44 L19.65,55.44 L19.85,55.42 L22.29,55.14 C24.95,54.83 27.61,54.53 30.27,54.22 L38.4,53.29 C38.94,53.23 39.47,53.16 40,53.1 C40.22,53.08 40.43,53.05 40.64,53.03 C40.91,53 41.19,52.95 41.47,52.91 C42.2100598,52.733967 42.9763429,52.6966701 43.73,52.8 C44.609389,53.0186302 45.3779727,53.5523689 45.89,54.3 C46.4340694,55.0723473 46.6986168,56.0070812 46.64,56.95 Z" id="Shape" fill="#CAD9FC"/><path d="M31.89,48.03 L19.85,50.56 C19.3329575,50.3000071 18.9409196,49.8445888 18.7607268,49.2946254 C18.580534,48.7446619 18.6270604,48.1455502 18.89,47.63 C19.3203801,46.8875441 20.0696413,46.385576 20.92,46.27 L27.49,44.26 C28.39,43.98 29.28,43.71 30.18,43.44 C30.28,43.41 30.37,43.38 30.47,43.35 L31.01,43.2 C31.3156395,43.3298569 31.5938866,43.5164861 31.83,43.75 C32.4088784,44.3077573 32.7408735,45.0737107 32.7521415,45.8774933 C32.7634095,46.681276 32.4530159,47.4562348 31.89,48.03 Z" id="Shape" fill="#E8EDFC"/><path d="M43.99,56.95 C43.93,57.8 43.23,59 42.24,59 L19.73,59 C19.0821911,58.998735 18.4862765,58.6454323 18.1743241,58.0776791 C17.8623718,57.5099258 17.8836989,56.8174793 18.23,56.27 C18.5225662,55.8197083 18.9976019,55.5200704 19.53,55.45 L19.62,55.44 L19.65,55.44 L19.85,55.42 L22.29,55.14 C24.95,54.83 27.61,54.53 30.27,54.22 L38.4,53.29 C38.94,53.23 39.47,53.16 40,53.1 C40.22,53.08 40.43,53.05 40.64,53.03 C40.91,53 41.19,52.95 41.47,52.91 C42.185246,53.1867505 42.8015704,53.6707567 43.24,54.3 C43.7840694,55.0723473 44.0486168,56.0070812 43.99,56.95 Z" id="Shape" fill="#E8EDFC"/><path d="M17.12,11.43 C16.9177293,12.0457981 16.8730341,12.7024737 16.99,13.34 L13.25,17.75 L10.86,17.63 L7.67,17.46 C7.26596783,16.940739 6.74057634,16.5286672 6.14,16.26 C3.13032529,14.868927 1.29063501,11.7654983 1.51471969,8.45747598 C1.73880437,5.14945363 3.98021889,2.32247804 7.15,1.35 C7.49026943,1.24200142 7.83782114,1.15845534 8.19,1.1 C11.4289145,0.579241771 14.6601613,2.07423724 16.36,4.88 C17.5482608,6.85081818 17.8254159,9.2394575 17.12,11.43 Z" id="Shape" fill="#7FACFA"/><path d="M14.62,11.43 C14.4177293,12.0457981 14.3730341,12.7024737 14.49,13.34 L10.86,17.63 L7.67,17.46 C7.26596783,16.940739 6.74057634,16.5286672 6.14,16.26 C3.13032529,14.868927 1.29063501,11.7654983 1.51471969,8.45747598 C1.73880437,5.14945363 3.98021889,2.32247804 7.15,1.35 C7.49026943,1.24200142 7.83782114,1.15845534 8.19,1.1 C10.5080767,1.4426017 12.5583248,2.78697318 13.7966115,4.77632022 C15.0348982,6.76566726 15.3359982,9.19881149 14.62,11.43 Z" id="Shape" fill="#A4C2F7"/><path d="M17.11,18.76 L11.62,21.19 C11.2645509,21.3440578 10.8722986,21.3926554 10.49,21.33 C9.82210685,21.2253839 9.25322646,20.7883632 8.98,20.17 L8.09,18.15 C7.98140165,17.9022968 7.8401484,17.6702379 7.67,17.46 L14.77,14.32 L16.99,13.34 C17.0343162,13.5814807 17.1082058,13.8165839 17.21,14.04 L18.13,16.12 C18.572751,17.1307871 18.1173476,18.3094783 17.11,18.76 Z" id="Shape" fill="#7FACFA"/><path d="M14.81,19.42 L10.49,21.33 C9.82210685,21.2253839 9.25322646,20.7883632 8.98,20.17 L8.09,18.15 C7.98140165,17.9022968 7.8401484,17.6702379 7.67,17.46 L14.77,14.32 C14.81,14.45 14.86,14.58 14.91,14.7 L15.83,16.78 C16.272751,17.7907871 15.8173476,18.9694783 14.81,19.42 Z" id="Shape" fill="#7FACFA"/><path d="M8.19,1.1 C7.83782114,1.15845534 7.49026943,1.24200142 7.15,1.35 C3.98021889,2.32247804 1.73880437,5.14945363 1.51471969,8.45747598 C1.29063501,11.7654983 3.13032529,14.868927 6.14,16.26 C6.74057634,16.5286672 7.26596783,16.940739 7.67,17.46 C7.8401484,17.6702379 7.98140165,17.9022968 8.09,18.15 L8.98,20.17 C9.25322646,20.7883632 9.82210685,21.2253839 10.49,21.33 C10.8722986,21.3926554 11.2645509,21.3440578 11.62,21.19 L20.94,42.21 C20.15,42.56 19.3,42.88 18.98,43.77 C18.8215882,44.2551936 18.8286223,44.7792331 19,45.26 C19.1786965,45.7788531 19.409895,46.2781079 19.69,46.75 C19.683,46.75 19.678,46.761 19.672,46.765 C19.5179058,46.8565249 19.3769517,46.9685481 19.253,47.098 C19.2454669,47.1058706 19.2384522,47.1142215 19.232,47.123 C19.0934561,47.2740795 18.9781911,47.4449548 18.89,47.63 C18.8009484,47.8208416 18.7374026,48.022574 18.701,48.23 C18.694,48.273 18.687,48.314 18.682,48.357 C18.6562424,48.5382805 18.6538898,48.7221197 18.675,48.904 L18.675,48.925 C18.7022735,49.1065861 18.753381,49.2837811 18.827,49.452 C18.843,49.491 18.862,49.526 18.88,49.563 C18.9460629,49.6980423 19.0261718,49.8257474 19.119,49.944 C19.14,49.971 19.157,49.999 19.178,50.025 C19.2905531,50.1548719 19.417729,50.27131 19.557,50.372 C19.6,50.404 19.647,50.431 19.693,50.46 C19.739,50.489 19.793,50.532 19.849,50.56 C19.9197088,50.5946611 19.9921358,50.6257013 20.066,50.653 C20.103,50.668 20.137,50.687 20.174,50.7 C20.3431773,50.7572479 20.5182927,50.795156 20.696,50.813 C20.743,50.819 20.789,50.821 20.837,50.823 C21.0349432,50.8356656 21.2336908,50.8245867 21.429,50.79 L19.909,51.11 C19.4166994,51.2017951 18.9675127,51.4509533 18.629,51.82 L18.619,51.83 C18.2523571,52.2603266 18.0660646,52.8156213 18.099,53.38 C18.129,54.2 18.679,55.41 19.619,55.44 L19.529,55.45 C18.9966019,55.5200704 18.5215662,55.8197083 18.229,56.27 C17.8826041,56.8176306 17.8613682,57.510294 18.1735662,58.078116 C18.4857643,58.6459379 19.0820119,58.9990985 19.73,59 L22.73,59 C22.0821911,58.998735 21.4862765,58.6454323 21.1743241,58.0776791 C20.8623718,57.5099258 20.8836989,56.8174793 21.23,56.27 C21.5225662,55.8197083 21.9976019,55.5200704 22.53,55.45 L22.62,55.44 C21.68,55.41 21.13,54.2 21.1,53.38 C21.0670646,52.8156213 21.2533571,52.2603266 21.62,51.83 L21.63,51.82 C21.9685127,51.4509533 22.4176994,51.2017951 22.91,51.11 L24.43,50.79 C24.2346908,50.8245867 24.0359432,50.8356656 23.838,50.823 C23.79,50.823 23.744,50.823 23.697,50.813 C23.5192927,50.795156 23.3441773,50.7572479 23.175,50.7 C23.138,50.687 23.104,50.668 23.067,50.653 C22.9931358,50.6257013 22.9207088,50.5946611 22.85,50.56 C22.795,50.531 22.75,50.492 22.694,50.46 C22.638,50.428 22.601,50.404 22.558,50.372 C22.418729,50.27131 22.2915531,50.1548719 22.179,50.025 C22.158,49.999 22.141,49.971 22.12,49.944 C22.0271718,49.8257474 21.9470629,49.6980423 21.881,49.563 C21.863,49.526 21.844,49.491 21.828,49.452 C21.754381,49.2837811 21.7032735,49.1065861 21.676,48.925 L21.676,48.9 C21.6548898,48.7181197 21.6572424,48.5342805 21.683,48.353 C21.688,48.31 21.695,48.269 21.702,48.226 C21.7384026,48.018574 21.8019484,47.8168416 21.891,47.626 C21.9791911,47.4409548 22.0944561,47.2700795 22.233,47.119 C22.2394522,47.1102215 22.2464669,47.1018706 22.254,47.094 C22.3779517,46.9645481 22.5189058,46.8525249 22.673,46.761 C22.679,46.761 22.684,46.75 22.691,46.746 C22.4107956,46.2754206 22.1792667,45.7775161 22,45.26 C21.8286223,44.7792331 21.8215882,44.2551936 21.98,43.77 C22.3,42.88 23.15,42.56 23.94,42.21 L14.624,21.188 C14.2685509,21.3420578 13.8762986,21.3906554 13.494,21.328 C12.8261068,21.2233839 12.2572265,20.7863632 11.984,20.168 L11.094,18.148 C10.9854017,17.9002968 10.8441484,17.6682379 10.674,17.458 C10.2699678,16.938739 9.74457634,16.5266672 9.144,16.258 C6.13556873,14.8669976 4.29642989,11.7649235 4.51958296,8.45799909 C4.74273603,5.15107469 6.98196284,2.32421088 10.15,1.35 C10.4126296,1.26995509 10.6797624,1.2055093 10.95,1.157 C10.0403883,0.976964913 9.10626915,0.957673322 8.19,1.1 Z" id="Shape" fill="#FFFFFF"/><path d="M29.43,39.78 L29.511,39.744 C29.462,39.699 29.406,39.663 29.353,39.622 L29.424,39.783 L29.43,39.78 Z" id="Shape" fill="#FFFFFF"/><path d="M7.45,2.307 C5.61360856,2.87330716 4.09079775,4.16968189 3.23864469,5.89214306 C2.38649163,7.61460423 2.27994918,9.61164928 2.944,11.415 L3.103,11.837 L1.274,12.647 L1.068,12.108 C0.214684313,9.79067267 0.351031333,7.22452037 1.44510183,5.01066324 C2.53917232,2.79680611 4.49484344,1.12974923 6.854,0.4 L7.45,2.307 Z" id="Shape" fill="#FFFFFF"/><path d="M0.742,11.032 C0.823887736,11.3982403 0.932853905,11.7578956 1.068,12.108 L1.274,12.647 C2.15685871,14.6449932 3.73843954,16.2521752 5.722,17.167 C6.35881979,17.4388762 6.87518108,17.9328488 7.175,18.557 L8.069,20.574 C8.54955706,21.6599612 9.62546193,22.3602404 10.813,22.36 C10.888,22.36 10.963,22.342 11.038,22.337 L19.629,41.722 C18.900332,42.0640508 18.3305561,42.6724797 18.037,43.422 C17.8032055,44.1134383 17.8032055,44.8625617 18.037,45.554 C18.1419842,45.8815482 18.2758431,46.1991284 18.437,46.503 C18.2546012,46.7104597 18.1015088,46.9419488 17.982,47.191 C17.4345177,48.2795009 17.560936,49.5856934 18.307,50.549 C18.343,50.595 18.39,50.628 18.427,50.672 C17.536853,51.2907461 17.0338608,52.3289492 17.1,53.411 C17.1349249,54.0887823 17.3507344,54.744843 17.725,55.311 C17.5978951,55.4413397 17.4836966,55.5836692 17.384,55.736 C16.8419808,56.5921209 16.8090899,57.6754478 17.2981733,58.562874 C17.7872567,59.4503002 18.7207247,60.0010418 19.734,60 L44.888,60 C46.544,60 47.549,58.269 47.637,57.019 C47.7108055,55.8442604 47.3801316,54.6796671 46.7,53.719 C46.0407689,52.7648694 45.0520542,52.0881555 43.924,51.819 C43.1378626,51.6924391 42.3351376,51.7117615 41.556,51.876 C41.739194,50.6253596 41.419151,49.3530986 40.666,48.338 C39.6811619,46.9720606 37.9965552,46.2970494 36.341,46.605 C36.3735484,46.4286085 36.3939298,46.2501877 36.402,46.071 C36.4253963,44.931042 35.9813226,43.8311556 35.173,43.027 C34.2623785,42.1641467 32.9922858,41.7920129 31.76,42.027 C31.7450864,41.9553949 31.7263936,41.8846293 31.704,41.815 L30.894,39.995 C30.2213241,38.4823954 28.4519922,37.7987188 26.937,38.466 L18.353,19.1 C19.2840389,18.2348094 19.5603456,16.8725812 19.04,15.713 L18.121,13.639 C17.8730536,13.0327652 17.8566815,12.3565234 18.075,11.739 C19.094075,8.54692169 18.2554314,5.05299014 15.8984814,2.6712545 C13.5415315,0.289518857 10.0565639,-0.585627866 6.854,0.4 C5.41810479,0.85152268 4.11567356,1.65008613 3.062,2.725 C2.8575585,2.91585281 2.74683621,3.18658768 2.75895137,3.46600555 C2.77106652,3.74542342 2.90480659,4.00555875 3.125,4.178 C3.53557365,4.49213421 4.1119398,4.46815401 4.495,4.121 C5.3162956,3.28310316 6.33111787,2.66012936 7.45,2.307 C10.5229347,1.37088396 13.8391107,2.64132952 15.5,5.391 C16.5459028,7.11458382 16.7900992,9.20795683 16.169,11.126 C16.0052661,11.6388351 15.9252403,12.1747037 15.932,12.713 L7.917,16.265 C7.51465197,15.8905845 7.05565619,15.5821123 6.557,15.351 C5.01526711,14.6396262 3.78606767,13.3901594 3.1,11.837 L2.941,11.415 C2.83510576,11.1432296 2.75019056,10.8637449 2.687,10.579 C2.54021669,10.0816817 2.05714684,9.76188526 1.542,9.821 C1.26580821,9.85708722 1.01890666,10.0113532 0.865376499,10.2437595 C0.711846338,10.4761657 0.666825955,10.7637966 0.742,11.032 Z M9.9,19.764 L9.09,17.935 L16.4,14.694 L17.21,16.522 C17.3176473,16.7645282 17.324491,17.0398964 17.2290241,17.2874726 C17.1335573,17.5350487 16.9436078,17.7345323 16.701,17.842 L11.216,20.273 C10.9738543,20.3816142 10.698239,20.3884595 10.451,20.292 C10.2047578,20.1957572 10.0066485,20.0059174 9.9,19.764 Z M14.773,20.886 L16.601,20.075 L25.109,39.275 L21.452,40.894 L12.941,21.7 L14.773,20.886 Z M43.535,53.786 C44.1642338,53.9548606 44.7111912,54.3455445 45.075,54.886 C45.4839067,55.467618 45.684727,56.1701367 45.645,56.88 C45.61,57.373 45.188,58.003 44.891,58.003 L19.734,58.003 C19.4486307,58.0039392 19.185589,57.8487669 19.0483837,57.5985446 C18.9111785,57.3483222 18.9217737,57.0431057 19.076,56.803 C19.2017782,56.6040977 19.4111197,56.4731213 19.645,56.447 L40.758,54.02 C41.058,53.986 41.353,53.937 41.651,53.887 C42.2670039,53.742053 42.9036912,53.7065122 43.532,53.782 L43.535,53.786 Z M39.055,49.525 C39.6384819,50.2788488 39.7728451,51.2877179 39.407,52.168 L19.667,54.433 C19.64,54.433 19.609,54.433 19.542,54.383 C19.2750048,54.1014414 19.1190496,53.7326907 19.103,53.345 C19.043875,52.7256002 19.4860383,52.1706852 20.103,52.09 L21.633,51.769 L34.74,49.009 C35.012,48.953 35.281,48.885 35.55,48.816 L35.832,48.745 C37.427,48.348 38.358,48.574 39.052,49.521 L39.055,49.525 Z M33.789,44.473 C34.1996344,44.8890061 34.4225156,45.4546979 34.406,46.039 C34.3979762,46.4334174 34.2605999,46.8142765 34.015,47.123 L21.239,49.808 C20.7372962,49.91808 20.216679,49.733032 19.897,49.331 C19.612946,48.9641357 19.5736646,48.4636908 19.797,48.057 C20.003,47.625 20.323,47.495 21.21,47.224 L30.472,44.392 C31.954,43.938 32.985,43.7 33.786,44.469 L33.789,44.473 Z M29.069,40.811 L29.815,42.511 L20.6,45.318 C20.458,45.362 20.31,45.409 20.161,45.459 C20.0795598,45.3000415 20.0100353,45.1352551 19.953,44.966 C19.8520739,44.6906218 19.840181,44.390501 19.919,44.108 C20.065,43.708 20.497,43.497 21.188,43.194 L21.325,43.133 C21.333,43.133 21.341,43.133 21.349,43.128 L26.773,40.728 L27.749,40.296 C28.2538029,40.0740842 28.8429767,40.3026854 29.066,40.807 L29.069,40.811 Z" id="Shape" fill="#428DFF"/><path d="M1.234,7.689 C1.34371933,7.76065771 1.46748126,7.80804864 1.597,7.828 C1.85609247,7.86033028 2.11857296,7.80544159 2.343,7.672 C2.54093167,7.53932225 2.69042808,7.34595952 2.769,7.121 C2.81719318,6.88790521 2.78987209,6.64551807 2.691,6.429 L2.591,6.271 C2.55143641,6.21726167 2.50580095,6.16827066 2.455,6.125 C2.41239401,6.07673546 2.36325209,6.0346619 2.309,6 C2.25210496,5.96307104 2.19299347,5.92967472 2.132,5.9 C1.88438208,5.7975659 1.6049586,5.80483309 1.363,5.92 C1.1043163,6.05535851 0.912990186,6.29150776 0.834234599,6.57264249 C0.755479011,6.85377722 0.796281542,7.15495375 0.947,7.405 C1.02113861,7.51919734 1.11902995,7.61606542 1.234,7.689 Z" id="Shape" fill="#428DFF"/><path d="M5.034,9.793 C5.066,9.793 5.098,9.793 5.134,9.793 C5.39803048,9.76768983 5.64118957,9.63852122 5.80997595,9.43391462 C5.97876232,9.22930803 6.05934727,8.96602692 6.034,8.702 C5.94041019,8.12289205 6.10115301,7.53155734 6.47503864,7.07952348 C6.84892427,6.62748963 7.39961569,6.35868867 7.986,6.342 C8.53552333,6.28677153 8.93622847,5.79652333 8.881,5.247 C8.82577153,4.69747667 8.33552333,4.29677153 7.786,4.352 C7.08669555,4.4387848 6.41419248,4.67477472 5.814,5.044 C4.51128373,5.85891648 3.81485436,7.36797764 4.04,8.888 C4.08891674,9.40059019 4.51908159,9.79223927 5.034,9.793 Z" id="Shape" fill="#428DFF"/></g></g></svg>
