<svg width="40" height="40" viewBox="0 0 40 40" fill="none" xmlns="http://www.w3.org/2000/svg">
<g clip-path="url(#clip0)">
<path d="M20 0C14.6957 0 9.60859 2.10714 5.85786 5.85786C2.10714 9.60859 0 14.6957 0 20C0 25.3043 2.10714 30.3914 5.85786 34.1421C9.60859 37.8929 14.6957 40 20 40C25.3043 40 30.3914 37.8929 34.1421 34.1421C37.8929 30.3914 40 25.3043 40 20C40 14.6957 37.8929 9.60859 34.1421 5.85786C30.3914 2.10714 25.3043 0 20 0V0ZM20 0.95C30.525 0.95 39.05 9.475 39.05 20C39.05 30.5167 30.525 39.05 20 39.05C9.48333 39.05 0.95 30.5233 0.95 20C0.95 9.48333 9.48333 0.95 20 0.95ZM20 1.34C19.8333 1.34 19.695 1.44 19.6367 1.585L18.8167 4.17C14.8222 4.4678 11.088 6.26491 8.36322 9.20086C5.6384 12.1368 4.12443 15.9944 4.125 20C4.125 22.4667 4.68667 24.8083 5.69167 26.8933L3.85833 28.9033C3.81242 28.9659 3.78562 29.0405 3.78119 29.118C3.77675 29.1955 3.79486 29.2726 3.83333 29.34C3.87436 29.4064 3.93347 29.4597 4.00374 29.4936C4.074 29.5276 4.1525 29.5408 4.23 29.5317L6.88333 28.9433C8.3392 31.0803 10.2953 32.8291 12.5814 34.0375C14.8674 35.2459 17.4142 35.8773 20 35.8767C25.45 35.8767 30.2667 33.1233 33.1233 28.9433L35.7767 29.5317C35.8536 29.539 35.931 29.5234 35.9992 29.4869C36.0674 29.4505 36.1233 29.3947 36.16 29.3267C36.1997 29.2596 36.2184 29.1821 36.2137 29.1042C36.2089 29.0264 36.1809 28.9518 36.1333 28.89L34.3 26.8933C35.3423 24.7451 35.8815 22.3877 35.8767 20C35.8772 15.9944 34.3633 12.1368 31.6384 9.20086C28.9136 6.26491 25.1795 4.4678 21.185 4.17L20.3633 1.57833C20.3327 1.50744 20.282 1.44708 20.2174 1.40472C20.1528 1.36236 20.0772 1.33986 20 1.34ZM19.995 1.75667C20.035 1.75667 20.075 1.79 20.0883 1.82833L21.7883 7.41833C21.5406 7.60412 21.3394 7.84489 21.2006 8.12167C21.0618 8.39845 20.9891 8.70369 20.9883 9.01333C20.9883 9.66167 21.305 10.2367 21.7883 10.6H21.7817C22.5083 11.1433 22.9783 12.01 22.9783 12.9817V14.8483L30.1883 10.6867L30.9817 12.0617L22.9783 16.6783V18.2867L24.3683 19.0867L32.3717 14.4633L33.165 15.8383L25.955 20.005L27.575 20.9383C28.4217 21.4283 28.9383 22.2683 29.045 23.1683V23.1617C29.0821 23.4683 29.1901 23.7622 29.3605 24.0198C29.5309 24.2775 29.759 24.4919 30.0267 24.646C30.2944 24.8001 30.5944 24.8898 30.9028 24.9079C31.2111 24.9259 31.5195 24.8719 31.8033 24.75L35.7917 29.0167C35.825 29.05 35.825 29.095 35.805 29.1333C35.7783 29.175 35.7383 29.1883 35.6917 29.1817L30.0033 27.8583C29.9668 27.5521 29.8595 27.2587 29.69 27.0011C29.5205 26.7435 29.2934 26.5289 29.0266 26.3741C28.7599 26.2194 28.4608 26.1289 28.153 26.1097C27.8453 26.0904 27.5373 26.143 27.2533 26.2633L27.2583 26.2567C26.425 26.615 25.44 26.5883 24.5917 26.0983L22.9783 25.165V33.4883H21.3917V24.2467L20.0017 23.4467L18.6133 24.2467V33.4883H17.025V25.1667L15.405 26.0917C14.5583 26.5817 13.5717 26.6083 12.7383 26.2517L12.745 26.2583C12.461 26.1377 12.1528 26.0848 11.8448 26.1039C11.5369 26.123 11.2375 26.2135 10.9706 26.3682C10.7036 26.523 10.4763 26.7377 10.3067 26.9955C10.1371 27.2532 10.0298 27.5469 9.99333 27.8533L4.305 29.175C4.2848 29.1807 4.26326 29.1791 4.24408 29.1706C4.22491 29.1621 4.20932 29.1471 4.2 29.1283C4.17333 29.095 4.18 29.05 4.21333 29.0167L8.20833 24.75C8.76333 24.9883 9.425 24.975 9.98667 24.6433C10.55 24.32 10.8933 23.7633 10.9667 23.1617V23.1683C11.0202 22.7082 11.1807 22.267 11.4354 21.88C11.6901 21.4931 12.0319 21.1711 12.4333 20.94L14.05 20.0067L6.83833 15.8467L7.63333 14.47L15.6367 19.0933L17.025 18.2867V16.68L9.02167 12.0633L9.815 10.6867L17.025 14.8467V12.9833C17.025 12.0117 17.495 11.145 18.2233 10.6017H18.2167C18.7 10.245 19.01 9.66833 19.01 9.015C19.01 8.36 18.6933 7.785 18.21 7.42L19.91 1.83167C19.9233 1.785 19.9617 1.75833 19.995 1.75833V1.75667ZM20.0017 11.5933C19.6335 11.5933 19.2803 11.7396 19.02 12C18.7596 12.2603 18.6133 12.6135 18.6133 12.9817V15.765L20 16.5667L21.3883 15.7667V12.9817C21.3883 12.6135 21.2421 12.2603 20.9817 12C20.7213 11.7396 20.3682 11.5933 20 11.5933H20.0017ZM20.0017 18.4L18.6133 19.2V20.8067L20.0017 21.6L21.39 20.8V19.2L20.0017 18.4ZM15.635 20.9267L13.2283 22.315C13.0698 22.406 12.9308 22.5274 12.8194 22.6723C12.7079 22.8171 12.6261 22.9826 12.5787 23.1591C12.5314 23.3356 12.5193 23.5198 12.5432 23.701C12.5672 23.8822 12.6267 24.0568 12.7183 24.215C12.8399 24.4263 13.0157 24.6014 13.2275 24.7221C13.4393 24.8428 13.6795 24.9048 13.9233 24.9017C14.1667 24.9021 14.4059 24.8382 14.6167 24.7167L17.025 23.3267V21.7267L15.635 20.9267ZM24.3733 20.9267L22.985 21.7267V23.3333L25.3933 24.7233C25.7124 24.9028 26.0894 24.9492 26.4425 24.8523C26.7956 24.7555 27.0962 24.5232 27.279 24.206C27.4619 23.8889 27.5122 23.5124 27.4191 23.1583C27.3259 22.8042 27.0969 22.5012 26.7817 22.315L24.3733 20.9267Z" fill="black"/>
</g>
<defs>
<clipPath id="clip0">
<rect width="40" height="40" fill="white"/>
</clipPath>
</defs>
</svg>
