<svg id="Capa_1" enable-background="new 0 0 512.001 512.001" height="512" viewBox="0 0 512.001 512.001" width="512" xmlns="http://www.w3.org/2000/svg"><g><path d="m201.001 192.779v33.222c0 8.284 6.716 15 15 15h80c8.284 0 15-6.716 15-15v-32.063c0-17.295 5.835-34.051 16.875-48.457 32.977-43.032 21.077-105.949-26.875-133.548v54.539c0 8.284-6.716 15-15 15s-15-6.716-15-15v-65.244c-9.899-1.637-20.062-1.644-30 .022v65.222c0 8.284-6.716 15-15 15s-15-6.716-15-15v-54.412c-47.993 27.754-60.009 90.773-26.511 133.894 10.647 13.704 16.511 30.334 16.511 46.825z"/><path d="m216.001 271.001v60h-19.95c-7.333 0-13.59 5.301-14.796 12.534l-12.911 77.466h175.314l-12.911-77.466c-1.206-7.233-7.463-12.534-14.796-12.534h-19.95v-60z"/><path d="m121.001 451.001v46c0 8.284 6.716 15 15 15h240c8.284 0 15-6.716 15-15v-46z"/></g></svg>