<svg width="32" height="32" viewBox="0 0 32 32" fill="none" xmlns="http://www.w3.org/2000/svg">
<path d="M16 0C24.8307 0 32 7.16933 32 16C32 24.8307 24.8307 32 16 32C7.16933 32 0 24.8307 0 16C0 7.16933 7.16933 0 16 0ZM4.32667 23.3853C5.57212 25.3546 7.2956 26.9767 9.33665 28.1006C11.3777 29.2245 13.67 29.8137 16 29.8133C20.908 29.8133 25.2227 27.248 27.6733 23.3853L16 18.9373L4.32667 23.3853ZM18.544 14.5307L28.2333 22.4173C29.2742 20.4386 29.8166 18.2358 29.8133 16C29.8133 8.564 23.924 2.492 16.56 2.19733L18.544 14.5307ZM15.44 2.19733C8.076 2.492 2.18667 8.564 2.18667 16C2.18667 18.316 2.75733 20.4987 3.76667 22.4173L13.456 14.5307L15.44 2.19733Z" fill="black"/>
</svg>
