<svg width="32" height="37" viewBox="0 0 32 37" fill="none" xmlns="http://www.w3.org/2000/svg">
<path d="M31.8698 8.72383C31.4298 2.66572 28.5765 1.39122 26.0645 0.809505C24.8032 0.508294 22.5578 0.244734 21.1098 0.169431C19.8485 0.056477 16.8858 0 15.9965 0C15.1205 0 12.1432 0.056477 10.8832 0.169431C9.4485 0.244734 7.18984 0.508294 5.9285 0.809505C3.41784 1.41005 0.560501 2.68078 0.123168 8.72383C0.0165014 10.3749 -0.0101653 12.5323 0.00316806 14.8384C0.0431681 18.6619 0.269835 21.2505 0.403168 23.0521C0.496501 24.2889 0.853835 27.9844 1.31917 29.8971C1.9565 32.5233 2.5405 33.2914 3.21783 34.0802C4.46717 35.5053 6.5125 35.9552 6.93784 36.0682C9.2485 36.6518 13.9245 36.761 15.9832 36.761C18.0418 36.761 22.7165 36.6668 25.0285 36.0682C25.4672 35.9552 27.5125 35.5222 28.7485 34.0802C29.4258 33.2914 30.0098 32.5233 30.6472 29.8971C31.1138 27.9844 31.4845 24.2889 31.5778 23.0521C31.7112 21.2505 31.9498 18.6619 31.9765 14.8384C32.0298 12.5323 31.9898 10.3749 31.8698 8.72383ZM30.3018 18.8897C30.0485 23.7279 29.7445 26.6158 29.3058 28.7167C28.9192 30.5541 28.4565 31.7722 27.7525 32.6551C26.5965 34.1367 25.0018 34.4548 24.0725 34.6431C22.0538 35.0761 18.6658 35.2078 15.9965 35.2078C13.3272 35.2078 9.93917 35.0572 7.9205 34.6431C6.99117 34.4548 5.3965 34.1367 4.2405 32.6551C3.54983 31.7722 3.0725 30.5353 2.7005 28.7149C2.26183 26.6346 1.9565 23.726 1.7045 18.8878C1.55783 15.983 1.5845 11.2559 1.81117 8.72195C2.15517 4.9361 3.4845 3.04035 6.32717 2.32874C7.65517 1.98988 9.44717 1.74514 11.1352 1.63219C12.4898 1.50041 14.7352 1.44393 15.9832 1.46276C17.2312 1.44393 19.4765 1.51923 20.8312 1.63219C22.5312 1.74514 24.3112 1.98988 25.6392 2.32874C28.4952 3.04035 29.8245 4.95493 30.1565 8.72383C30.4218 11.2559 30.4618 15.983 30.3032 18.8897H30.3018ZM23.3672 3.09495C22.6365 7.72984 22.3445 9.84961 21.7458 13.2044C21.1752 16.433 20.7232 19.4131 19.9658 20.857C19.1832 22.3198 18.1458 22.6398 17.4418 22.7509C17.0698 22.8074 16.8045 22.8262 16.0205 22.845C15.5418 22.8578 15.063 22.8264 14.5872 22.7509C13.8832 22.6379 12.8338 22.3198 12.0645 20.857C11.2938 19.4131 10.8552 16.433 10.2845 13.2062C9.65784 9.86844 9.3805 7.72796 8.6365 3.09683C8.6365 3.09683 7.90584 3.13448 7.57383 3.17213C7.13517 3.20978 6.78984 3.26626 6.41784 3.34156C6.87517 13.4547 7.3405 24.1986 7.91917 33.7074C8.97651 33.8952 10.0403 34.0014 11.1058 34.0256C11.5458 31.6423 12.1032 28.3402 12.7152 26.9339C13.2192 25.7893 14.0032 25.6594 14.4418 25.5841C15.1325 25.4524 15.7165 25.4335 15.9952 25.4335C16.2618 25.4147 16.8445 25.4335 17.5485 25.5841C17.9885 25.6783 18.7712 25.7912 19.2752 26.9339C19.9018 28.3402 20.4445 31.6404 20.8832 34.0237C20.8832 34.0237 21.3605 34.0049 22.4365 33.9296C22.9832 33.8957 23.5298 33.8204 24.0712 33.7037C24.6818 23.5566 25.1178 13.5075 25.5725 3.34156C25.1992 3.26626 24.8552 3.20978 24.4165 3.17213C24.1098 3.13448 23.3672 3.09683 23.3672 3.09683V3.09495Z" fill="black"/>
</svg>
