<svg width="34" height="34" viewBox="0 0 34 34" fill="none" xmlns="http://www.w3.org/2000/svg">
<path d="M17.0004 0C15.9421 0 13.7137 0.0184167 13.1853 0.0750833C12.6937 0.13175 12.562 0.283333 12.2786 0.64175C11.9004 1.15175 8.65197 6.63 6.97039 9.67158C5.74214 11.8617 3.81547 15.6782 3.64547 16.0933C3.47547 16.4517 3.40039 16.7549 3.40039 17C3.40039 17.2649 3.47547 17.5667 3.64547 17.9067C4.04214 18.7949 5.27039 21.2118 6.97039 24.3284C8.74547 27.5584 11.9571 32.9049 12.2971 33.3767C12.6555 33.8682 12.902 33.8867 13.2221 33.9249C13.7137 33.9618 15.8486 34 17.0004 34C18.2286 34 20.4571 33.9433 20.7786 33.9249C21.0804 33.9051 21.3453 33.8682 21.7037 33.3767C22.0253 32.9233 25.482 27.1617 27.0304 24.3284C28.5221 21.6084 30.1655 18.3416 30.3553 17.9067C30.5621 17.4349 30.6004 17.1884 30.6004 17C30.6004 16.8484 30.5621 16.5282 30.3553 16.0933C29.2989 13.9263 28.1903 11.7851 27.0304 9.67158C25.2355 6.44158 22.0437 1.09508 21.6853 0.623333C21.3255 0.151583 21.1186 0.113333 20.7971 0.0949167H20.7404C20.2686 0.0184167 18.2286 0 17.0004 0ZM20.3253 1.30333C20.4571 1.30333 20.5321 1.32175 20.552 1.36C19.9853 2.47492 18.5488 5.28842 17.5288 7.87667C18.98 10.5501 20.3533 13.2652 21.6471 16.0182C21.8737 16.5084 21.9871 16.7549 21.9871 17C21.9871 17.2451 21.8737 17.4916 21.6471 17.9817C19.9088 21.7218 15.8486 29.3916 14.1671 32.2433C13.9971 32.5267 13.8086 32.6782 13.6755 32.6782C13.5437 32.6782 13.4686 32.6584 13.4488 32.6216C14.0155 31.5067 15.452 28.6917 16.472 26.1049C15.0208 23.4314 13.6475 20.7164 12.3537 17.9633C12.1271 17.4718 12.0137 17.2267 12.0137 16.9816C12.0137 16.7351 12.1271 16.49 12.3721 15.9984C14.0721 12.2584 18.1337 4.59 19.8337 1.73825C20.0037 1.45492 20.1921 1.30333 20.3253 1.30333Z" fill="black"/>
</svg>
