<svg width="34" height="34" viewBox="0 0 34 34" fill="none" xmlns="http://www.w3.org/2000/svg">
<g clip-path="url(#clip0)">
<path d="M5.85083 10.2139H8.61192V17.4587C8.61192 18.7054 8.07642 21.3191 4.24575 21.3191C0.415083 21.3205 0 18.8853 0 17.5196V16.1823H2.67183V17.4899C2.67183 18.2903 3.20733 19.034 4.216 19.034C5.22608 19.034 5.84942 18.4688 5.84942 17.5182V10.2139H5.85083ZM11.8178 16.3622C11.8178 15.559 12.1437 14.9059 13.0645 14.9059C14.0151 14.9059 14.4302 15.6185 14.4302 16.3608H11.8178V16.3622ZM12.8874 13.2427C10.3629 13.2427 9.23383 15.5589 9.23383 17.5494C9.23383 19.5384 10.5117 21.4679 13.124 21.4679C15.4105 21.4976 16.9249 20.013 16.9249 18.915H14.4004C14.4004 18.915 14.1029 19.6262 13.2132 19.6262C12.3222 19.6262 11.8178 19.1219 11.8178 17.905H16.9547C16.9547 14.0743 15.0549 13.2441 12.8874 13.2441V13.2427ZM20.0727 16.3608C20.0727 15.5589 20.3986 14.9059 21.3194 14.9059C22.27 14.9059 22.6851 15.6185 22.6851 16.3608H20.0742H20.0727ZM21.1409 13.2441C18.6178 13.2441 17.4887 15.559 17.4887 17.548C17.4887 19.5384 18.7666 21.4679 21.3789 21.4679C23.6654 21.4976 25.1798 20.013 25.1798 18.915H22.6553C22.6553 18.915 22.3578 19.6262 21.4682 19.6262C20.5785 19.6262 20.0713 19.1219 20.0713 17.905H25.2082C25.2082 14.0743 23.3098 13.2441 21.1423 13.2441H21.1409ZM28.3815 17.4587C28.4127 15.9457 29.0062 15.3224 29.8081 15.3224C31.1142 15.3224 31.3522 16.331 31.3522 17.3709C31.3522 18.4093 31.1737 19.775 29.9271 19.775C28.6804 19.775 28.3546 18.9745 28.3829 17.4587H28.3815ZM28.4424 23.7841V20.6065C28.5487 20.7482 28.6096 20.8162 28.798 20.9635C29.0955 21.1945 29.5998 21.5869 30.7289 21.5869C32.7774 21.5869 33.9646 19.8061 33.9646 17.3709C33.9646 14.223 31.9756 13.3334 30.6992 13.3334C29.4227 13.3334 28.9425 13.9255 28.7697 14.1338C28.5699 14.3746 28.5047 14.5106 28.4127 14.7075V13.5402H25.8584V23.7841H28.4424ZM32.9276 22.597V23.4356H33.0749V23.1041H33.1911C33.2704 23.1041 33.3257 23.114 33.3568 23.1325C33.4092 23.1636 33.4347 23.2274 33.4347 23.3237V23.3903L33.4376 23.4186L33.4404 23.4271L33.4418 23.4356H33.5807L33.575 23.4257C33.5698 23.3905 33.567 23.355 33.5665 23.3195V23.2571C33.5665 23.2146 33.5509 23.1721 33.5212 23.1268C33.5039 23.1038 33.482 23.0847 33.4568 23.0708C33.4317 23.0569 33.4039 23.0485 33.3752 23.046C33.4181 23.0404 33.4595 23.0265 33.4971 23.005C33.5523 22.9695 33.5792 22.9143 33.5792 22.8392C33.5792 22.7344 33.5367 22.6635 33.4503 22.6267C33.3762 22.6035 33.2984 22.5939 33.2208 22.5984H32.9276V22.597ZM33.3795 22.7287C33.4163 22.75 33.4362 22.791 33.4362 22.852C33.4362 22.9171 33.4064 22.9596 33.3483 22.9823C33.3032 22.9973 33.2556 23.004 33.2081 23.0021H33.0749V22.6975H33.2024C33.2832 22.6975 33.3427 22.7089 33.3795 22.7287ZM33.7762 23.5603C33.8485 23.4899 33.9056 23.4054 33.9441 23.3121C33.9826 23.2188 34.0016 23.1186 34 23.0177C34.0014 22.9174 33.9823 22.8179 33.9438 22.7254C33.9053 22.6328 33.8483 22.549 33.7762 22.4794C33.7058 22.4074 33.6216 22.3506 33.5285 22.3124C33.4355 22.2741 33.3356 22.2553 33.235 22.257C33.1348 22.2553 33.0354 22.2742 32.9428 22.3125C32.8502 22.3507 32.7665 22.4075 32.6967 22.4794C32.6248 22.5492 32.568 22.6329 32.5298 22.7255C32.4915 22.8181 32.4726 22.9175 32.4742 23.0177C32.4742 23.2302 32.5479 23.4115 32.6952 23.5603C32.7649 23.6329 32.8488 23.6904 32.9417 23.7291C33.0345 23.7679 33.1344 23.7871 33.235 23.7855C33.3359 23.7868 33.436 23.7674 33.5291 23.7284C33.6222 23.6894 33.7063 23.6317 33.7762 23.5589V23.5603ZM32.7703 22.553C32.8992 22.4255 33.0537 22.3604 33.235 22.3604C33.4163 22.3604 33.5722 22.4241 33.6997 22.553C33.8272 22.6805 33.8909 22.8364 33.8909 23.0177C33.8909 23.2019 33.8272 23.3577 33.7011 23.4852C33.641 23.548 33.5686 23.5977 33.4884 23.6311C33.4081 23.6645 33.3219 23.6809 33.235 23.6793C33.1484 23.681 33.0625 23.6647 32.9825 23.6315C32.9025 23.5984 32.8303 23.549 32.7703 23.4866C32.7088 23.4255 32.6603 23.3526 32.6277 23.2723C32.595 23.1919 32.579 23.1058 32.5805 23.0191C32.579 22.9325 32.5952 22.8465 32.6281 22.7664C32.661 22.6862 32.7099 22.6137 32.7717 22.553" fill="black"/>
</g>
<defs>
<clipPath id="clip0">
<rect width="34" height="34" fill="white"/>
</clipPath>
</defs>
</svg>
