<svg width="34" height="27" viewBox="0 0 34 27" fill="none" xmlns="http://www.w3.org/2000/svg">
<path d="M13.8465 12.3425C14.1199 10.191 14.0845 9.06645 11.3418 9.24059C8.19258 9.44239 5.00083 9.67186 0.222417 10.912C0.0756883 11.6107 0.00103618 12.3268 0 13.0455C0 15.5192 0.8755 17.9116 2.53158 19.9686C4.03325 21.8304 6.15258 23.3781 8.66008 24.4474C9.59121 24.8401 10.5444 25.1598 11.5132 25.4043C11.6974 24.5466 12.8718 19.0459 13.8026 12.6729L13.8451 12.3441L13.8465 12.3425ZM33.7776 10.912C29.0006 9.67186 25.8102 9.44402 22.6624 9.24221C19.9183 9.06808 19.8829 10.1926 20.1577 12.3441L20.2229 12.8291C21.1437 19.0915 22.2884 24.4815 22.4867 25.3929C29.1763 23.6369 34 18.7676 34 13.0455C34 12.3246 33.9235 11.6134 33.7776 10.912ZM33.082 8.75724C32.6523 7.79788 32.1088 6.91169 31.467 6.12405C29.9653 4.26226 27.8474 2.71456 25.3399 1.64534C22.8126 0.567975 19.9282 0 17 0C14.0703 0 11.1874 0.569603 8.66008 1.64371C6.15258 2.71456 4.03325 4.26389 2.53158 6.12405C1.89026 6.91239 1.34723 7.79911 0.918 8.75887C4.182 7.85238 9.76508 6.65459 14.9487 6.52928C15.4487 6.51626 15.793 6.70016 16.0197 7.0289C16.2973 7.4325 16.2747 8.86465 16.2676 9.50586L16.1202 26.0732C16.7075 26.0959 17.2953 26.0959 17.8826 26.0732L17.7353 9.50586C17.7282 8.86465 17.7069 7.4325 17.9832 7.0289C18.2098 6.70016 18.5541 6.51626 19.0542 6.52765C24.2363 6.65459 29.8166 7.85075 33.082 8.75724Z" fill="black"/>
</svg>
